# xmcd
# 
# Track frame offsets:
#     150
#     25983
#     42669
#     67645
#     86619
#     108972
#     134481
#     163223
#     181089
#     204677
#     219631
#     238821
# 
# Disc length: 3496
# 
# Revision: 2
# Processed by: cddbd v1.5.2PL0 Copyright (c) Steve Scherf et al.
# Submitted via: fre:ac v1.0.17
# 
DISCID=ab0da60c
DTITLE=Ulrich Drechsler Trio - Beyond Words
DYEAR=2012
DGENRE=Jazz
TTITLE0=You Always Know
TTITLE1=Song Of Sands
TTITLE2=Beyond Words
TTITLE3=Hidden Persuasion
TTITLE4=Little Peace Lullaby No. 2
TTITLE5=As A Token Of Friendship
TTITLE6=The Human Glow
TTITLE7=Little Peace Lullaby No. 1
TTITLE8=A Glimpse Of Honesty
TTITLE9=Little Peace Lullaby No. 3
TTITLE10=As Simple As It Could Be
TTITLE11=A Family Affair
EXTD=2012 enja and yellowbird records\nUlrich Drechsler ... Bass Clarinet\nLukas König ... Drums and Percussion\nBenny Omerzell ... Piano\nEfrat Alony ... Vocals (on 3 and 8)
EXTT0=
EXTT1=
EXTT2=
EXTT3=
EXTT4=
EXTT5=
EXTT6=
EXTT7=
EXTT8=
EXTT9=
EXTT10=
EXTT11=
PLAYORDER=
